<svg width="12" height="12" viewBox="0 0 12 12" fill="none" xmlns="http://www.w3.org/2000/svg">
<path d="M7.18602 3.62658L4.81268 5.99991M7.18602 6.59325L4.81268 8.95991M1.81702 5.37238C1.84054 5.16403 1.75363 4.95851 1.58777 4.83024C1.05752 4.50864 0.714462 3.95149 0.666016 3.33323C0.666016 1.86046 3.05382 0.666565 5.99935 0.666565C8.94488 0.666565 11.3327 1.86046 11.3327 3.33323C11.2842 3.95149 10.9412 4.50864 10.4109 4.83024C10.2451 4.95851 10.1582 5.16403 10.1817 5.37238L10.558 9.38964C10.6496 10.3672 9.93136 11.2339 8.9538 11.3255C8.89869 11.3306 8.84336 11.3332 8.78801 11.3332H3.21071C2.22887 11.3332 1.43295 10.5373 1.43297 9.55542C1.43297 9.50007 1.43555 9.44475 1.44072 9.38964L1.81702 5.37238Z" stroke="black" stroke-width="1.25" stroke-linecap="round" stroke-linejoin="round"/>
</svg>
