<svg width="14" height="14" viewBox="0 0 14 14" fill="none" xmlns="http://www.w3.org/2000/svg">
<path d="M7 13C10.3137 13 13 10.3137 13 7C13 3.68629 10.3137 1 7 1C3.68629 1 1 3.68629 1 7C1 10.3137 3.68629 13 7 13ZM7 13V3.66667M9.33333 4.778C8.04467 4.778 7 5.82267 7 7.11133C7 5.82267 5.95533 4.778 4.66667 4.778M9.33333 7.6228C8.04467 7.6228 7 8.66747 7 9.95614C7 8.66747 5.95533 7.6228 4.66667 7.6228M9.33333 4V8.66667C9.33333 9.95533 8.28867 11 7 11C5.71133 11 4.66667 9.95533 4.66667 8.66667V4" stroke="black" stroke-width="1.25" stroke-linecap="round" stroke-linejoin="round"/>
</svg>
