<svg width="8" height="15" viewBox="0 0 8 15" fill="none" xmlns="http://www.w3.org/2000/svg">
<path d="M3 1.33331H5V1.33331C5.55228 1.33331 6 1.78103 6 2.33331V2.66665C6 3.03484 5.70152 3.33331 5.33333 3.33331H2.66667V3.33331C2.29848 3.33331 2 3.03484 2 2.66665V2.33331V2.33331C2 1.78103 2.44772 1.33331 3 1.33331V1.33331Z" stroke="black" stroke-width="1.25" stroke-linecap="round" stroke-linejoin="round"/>
<path d="M7.33268 8.33286V8.33286C6.26609 8.77759 5.06602 8.7777 3.99935 8.33315V8.33315C2.93268 7.88861 1.73261 7.88871 0.666016 8.33344" stroke="black" stroke-width="1.25" stroke-linecap="round" stroke-linejoin="round"/>
<path d="M2.64572 3.32935V3.32935C2.60218 3.77203 2.41181 4.18743 2.10491 4.50941L1.41399 5.22514V5.22514C0.934126 5.72225 0.665946 6.38621 0.665939 7.07715V12.6667V12.6667C0.665939 13.4031 1.26289 14.0001 1.99927 14.0001H5.99927V14.0001C6.73565 14.0001 7.33261 13.4031 7.33261 12.6667V12.6667V7.07715V7.07717C7.33261 6.38624 7.06443 5.72228 6.58458 5.22517L5.89364 4.50941V4.50941C5.58674 4.18743 5.39637 3.77204 5.35283 3.32936" stroke="black" stroke-width="1.25" stroke-linecap="round" stroke-linejoin="round"/>
</svg>
